<svg width="128" height="128" viewBox="0 0 128 128" fill="none" xmlns="http://www.w3.org/2000/svg">
<path fill-rule="evenodd" clip-rule="evenodd" d="M128 64C128 99.3462 99.3462 128 64 128C28.6538 128 0 99.3462 0 64C0 28.6538 28.6538 0 64 0C99.3462 0 128 28.6538 128 64ZM45.3604 18.6396L55.5147 8.48528C60.201 3.79899 67.799 3.79899 72.4853 8.48528L82.6396 18.6396H97C103.627 18.6396 109 24.0122 109 30.6396V45L119.154 55.1543C123.841 59.8406 123.841 67.4386 119.154 72.1249L109 82.2792V96.6396C109 103.267 103.627 108.64 97 108.64H82.6396L72.4853 118.794C67.799 123.48 60.201 123.48 55.5147 118.794L45.3604 108.64H31C24.3726 108.64 19 103.267 19 96.6396V82.2792L8.84567 72.1249C4.15937 67.4386 4.15938 59.8406 8.84567 55.1543L19 45V30.6396C19 24.0122 24.3726 18.6396 31 18.6396H45.3604Z" fill="#AF9D6E"/>
<path d="M62.8677 80.8629C62.6651 81.0889 57.9012 86.4504 57.918 90.4393C57.9308 93.5107 60.4341 95.9995 63.5029 95.9995H63.5269C66.6056 95.9861 69.1006 93.47 69.0877 90.3907C69.0715 86.4923 64.2634 81.09 64.0587 80.8617C63.7563 80.5247 63.1724 80.5236 62.8677 80.8629Z" fill="#008060"/>
<path d="M46.9869 80.8626C46.7843 81.0886 42.0203 86.4502 42.0372 90.439C42.05 93.5105 44.5533 95.9993 47.622 95.9993H47.646C49.1376 95.9932 50.5371 95.4056 51.5874 94.3465C52.6382 93.2873 53.2124 91.8827 53.2063 90.3906C53.1895 86.4922 48.3826 81.0903 48.1784 80.8622C47.8748 80.5246 47.2915 80.5233 46.9869 80.8626Z" fill="#008060"/>
<path d="M78.7497 80.8628C78.5466 81.0894 73.7816 86.451 73.7989 90.4392C73.8112 93.5101 76.3144 96.0001 79.3843 96.0001H79.4083C82.4881 95.9867 84.9814 93.4705 84.9686 90.3912C84.9518 86.4928 80.1449 81.091 79.9407 80.8628C79.6371 80.5252 79.0527 80.5252 78.7497 80.8628Z" fill="#008060"/>
<path d="M63.5028 32C51.095 32 41 42.0943 41 54.5028C41 66.9096 51.0937 77.0042 63.5014 77.0042H63.5019C75.9098 77.0042 86.0047 66.9099 86.0047 54.5028C86.0047 42.095 75.9105 32 63.5019 32H63.5028ZM83.2799 61.2528H74.6661C75.2347 59.1842 75.5829 56.9325 75.5829 54.5022C75.5829 52.0698 75.2341 49.8242 74.6649 47.7662H83.2849C84.007 49.8812 84.4049 52.1457 84.4049 54.5022C84.4049 56.8638 84.0053 59.1334 83.2799 61.2528V61.2528ZM53.0228 54.5017C53.0228 52.0658 53.4029 49.8152 54.0217 47.7657H62.7031V61.2522L54.0167 61.2528C53.4012 59.1919 53.0229 56.9358 53.0229 54.5016L53.0228 54.5017ZM72.4356 46.1657H64.3039V34.7103C66.3185 36.4524 70.2548 40.4067 72.4356 46.1657ZM62.7035 46.1657H54.5718C56.7542 40.4101 60.6912 36.4581 62.7035 34.7143V46.1657ZM62.7035 62.8528V74.5079C60.6828 72.716 56.7387 68.6731 54.5601 62.8528H62.7035ZM64.3039 74.5068V62.8528H72.4389C70.2604 68.6586 66.3239 72.7093 64.3039 74.5068ZM64.3039 61.2529V47.7658H72.9775C73.5958 49.8165 73.9842 52.0621 73.9842 54.5018C73.9842 56.9377 73.5952 59.1892 72.9769 61.2524L64.3039 61.2529ZM82.6668 46.1658H74.1706C72.0122 39.9644 67.9039 35.7138 65.6059 33.7049C73.2605 34.4733 79.7075 39.3901 82.6673 46.1658H82.6668ZM61.4011 33.7054C59.1031 35.7143 54.9943 39.9643 52.8364 46.1664L44.3397 46.1658C47.299 39.3901 53.746 34.4733 61.4011 33.7054V33.7054ZM43.7211 47.7657H52.3411C51.7719 49.8237 51.4231 52.0692 51.4231 54.5017C51.4231 56.9325 51.7714 59.1835 52.34 61.2522L43.7262 61.2528C43.0007 59.1333 42.6012 56.8644 42.6012 54.5022C42.6012 52.1451 42.9991 49.8811 43.7211 47.7657V47.7657ZM44.3472 62.8528H52.8311C54.9081 68.8756 58.7965 73.1218 61.1324 75.2652C53.6017 74.4108 47.2741 69.5409 44.3467 62.8528H44.3472ZM65.8743 75.2652C68.2108 73.1218 72.0986 68.8756 74.1756 62.8528H82.6594C79.7332 69.5408 73.4056 74.4108 65.8738 75.2652H65.8743Z" fill="#008060"/>
</svg>
