<svg width="96" height="96" viewBox="0 0 96 96" fill="none" xmlns="http://www.w3.org/2000/svg">
<path d="M47.6943 26.9609C43.9259 26.9609 40.4269 28.4861 37.8245 31.0885C35.2228 33.7803 33.7871 37.2795 33.7871 41.0477C33.7871 44.2777 34.9537 47.5077 37.0171 50.0199C39.3497 52.8914 40.7855 56.3004 41.0545 59.8897V60.2484V60.3379V60.6965V61.0551V61.1446V61.5032V64.8228C41.0545 66.6171 42.3106 68.0528 43.9259 68.4113C44.1055 70.3852 45.7202 71.9999 47.7837 71.9999C49.8471 71.9999 51.4624 70.3852 51.6414 68.4113C53.2561 68.0527 54.5128 66.5269 54.5128 64.8228V61.5032V61.1446V61.0551V60.6965V60.607V60.3379V60.2484V59.8897V59.8002V59.5311V59.4416V59.1725V59.083V58.8139V58.7244C54.5128 58.6349 54.5128 58.5448 54.6023 58.3658V58.2763C54.6023 58.1868 54.6023 58.0072 54.6918 57.9177C54.6918 57.8282 54.7813 57.6485 54.7813 57.559C55.4097 54.7778 56.6658 52.1754 58.4601 50.0225C60.5236 47.5103 61.6901 44.2803 61.6901 40.9607C61.6901 37.1924 60.1649 33.6031 57.5626 30.9119C55.0516 28.3967 51.5524 26.9609 47.6941 26.9609L47.6943 26.9609ZM47.8739 70.5661C46.7073 70.5661 45.7204 69.6686 45.4512 68.5026H50.2065C50.0275 69.6686 49.0405 70.5661 47.8739 70.5661ZM53.1673 64.8238C53.1673 66.0799 52.1804 67.0669 50.9243 67.0669H44.8235C43.5674 67.0669 42.5804 66.0799 42.5804 64.8238V63.1189H53.1673V64.8238ZM42.5804 61.5036V61.0549V60.8753V60.6061V60.2475V60.158C42.4909 59.4402 42.4909 58.7223 42.3113 58.0045H53.437V58.1841V58.3638C53.437 58.4533 53.437 58.6329 53.3475 58.7224V58.8119C53.258 59.6192 53.1679 60.5168 53.1679 61.3241L53.1673 61.6833H42.5804L42.5804 61.5036ZM57.5641 49.1224C55.7698 51.2759 54.4235 53.8777 53.7063 56.6589H41.9522C41.2343 53.8777 39.8887 51.3655 38.0944 49.1224C36.21 46.8793 35.223 44.0079 35.223 41.1371C35.223 37.7275 36.4791 34.5875 38.9018 32.2544C41.2344 29.8317 44.3749 28.5756 47.7845 28.4861H47.874C51.1935 28.4861 54.4236 29.7421 56.7567 32.1648C59.1793 34.5875 60.525 37.7275 60.525 41.1371C60.525 44.0079 59.4485 46.8793 57.5642 49.1224H57.5641Z" fill="#008060"/>
<path d="M40.5162 34.6772C39.0805 36.3821 38.1836 38.6251 38.1836 40.9576C38.1836 42.1242 38.3632 43.2902 38.812 44.4568L40.1575 43.9185C39.7989 43.021 39.6193 42.034 39.6193 40.9577C39.6193 38.9838 40.3372 37.0999 41.5932 35.6642C42.8493 34.2285 44.554 33.2415 46.4379 32.883L46.1688 31.4473C43.9251 31.8059 41.9512 32.9725 40.5161 34.6773L40.5162 34.6772Z" fill="#008060"/>
<path d="M35.6709 26.4227V29.9218H37.1066V24H31.1847V25.4357H34.5043C32.1717 27.0504 30.2874 29.1145 28.8516 31.5365C27.1467 34.4974 26.25 37.8169 26.25 41.2265C26.25 43.5592 26.6987 45.8022 27.4166 47.9557C28.2239 50.0192 29.3011 51.9037 30.7362 53.6084L31.8126 52.7109C30.4671 51.0962 29.48 49.3914 28.7622 47.4175C28.0444 45.4436 27.6858 43.3801 27.6858 41.2264C27.6858 38.0858 28.4931 35.0354 30.1084 32.2542C31.5441 30.0111 33.428 27.9477 35.6711 26.4226L35.6709 26.4227Z" fill="#008060"/>
<path d="M68.2412 48.0458C69.0485 45.8923 69.4078 43.6492 69.4078 41.3166C69.4078 37.907 68.5103 34.5874 66.8061 31.6266C65.1915 28.7551 62.7688 26.4227 59.9874 24.7178L59.2695 25.9739C61.8712 27.4991 64.0248 29.7422 65.5499 32.3445C67.0751 35.0363 67.9726 38.1761 67.9726 41.3167C67.9726 43.4702 67.614 45.5337 66.8961 47.5077C66.2678 49.302 65.2814 50.9174 64.1149 52.3524V48.6736H62.6792V54.5955H68.601V53.1598H65.371C66.5364 51.6352 67.5234 49.9304 68.2412 48.0459V48.0458ZM64.1136 53.0707L64.2031 53.1602L64.1136 53.0707Z" fill="#008060"/>
<path fill-rule="evenodd" clip-rule="evenodd" d="M48 96C74.5097 96 96 74.5097 96 48C96 21.4903 74.5097 0 48 0C21.4903 0 0 21.4903 0 48C0 74.5097 21.4903 96 48 96ZM95.7297 47.7297L48 0L0.270289 47.7297L48 95.4594L95.7297 47.7297Z" fill="#672B13" fill-opacity="0.17"/>
</svg>
