<svg width="71" height="95" viewBox="0 0 71 95" fill="none" xmlns="http://www.w3.org/2000/svg">
<path d="M27.727 31.4731C23.2258 26.9806 23.1999 0 23.1999 0C23.1999 0 23.2258 26.9804 18.7333 31.4811C14.24 35.9823 0.75 35.9947 0.75 35.9947C0.75 35.9947 14.24 35.9822 18.7411 40.4746C23.2423 44.9671 23.2682 71.9477 23.2682 71.9477C23.2682 71.9477 23.2423 44.9673 27.7348 40.4666C32.2273 35.9654 45.7173 35.953 45.7173 35.953C45.7173 35.953 32.2273 35.9655 27.727 31.4739V31.4731Z" fill="#008060"/>
<path d="M59.6994 55.611C56.8865 52.8037 56.8701 35.9402 56.8701 35.9402C56.8701 35.9402 56.8873 52.8029 54.0785 55.6158C51.2712 58.4295 42.8398 58.4373 42.8398 58.4373C42.8398 58.4373 51.2712 58.4295 54.0841 61.2367C56.8977 64.0448 56.9134 80.9075 56.9134 80.9075C56.9134 80.9075 56.8977 64.0448 59.705 61.2311C62.513 58.4182 70.9444 58.4096 70.9444 58.4096C70.9444 58.4088 62.513 58.419 59.6994 55.611Z" fill="#008060"/>
<path d="M39.0111 79.2409C37.3228 77.5565 37.3134 67.4392 37.3134 67.4392C37.3134 67.4392 37.3221 77.5565 35.6384 79.2441C33.9533 80.9325 28.8945 80.9372 28.8945 80.9372C28.8945 80.9372 33.9532 80.9325 35.6406 82.6168C37.3282 84.302 37.3384 94.4194 37.3384 94.4194C37.3384 94.4194 37.3282 84.3021 39.0134 82.613C40.6977 80.9255 45.7564 80.92 45.7564 80.92C45.7557 80.92 40.6986 80.9263 39.0109 79.2411L39.0111 79.2409Z" fill="#008060"/>
</svg>
