<svg width="53" height="104" viewBox="0 0 53 104" fill="none" xmlns="http://www.w3.org/2000/svg">
<path d="M31.9408 37.0522V79.904H29.7867V37.0522H31.9408ZM20.9219 79.904V37.2738H23.076V79.904H20.9219Z" fill="#008060"/>
<path d="M26.5531 16.8821C28.2197 16.8821 29.7294 17.5581 30.822 18.6506C31.9146 19.7431 32.5906 21.2528 32.5906 22.9195C32.5906 24.5861 31.9145 26.0959 30.822 27.1885C29.7296 28.2811 28.2198 28.957 26.5531 28.957C24.8864 28.957 23.3767 28.2809 22.2842 27.1885C21.1916 26.096 20.5156 24.5862 20.5156 22.9195C20.5156 21.253 21.1917 19.7432 22.2842 18.6506C23.3766 17.558 24.8864 16.8821 26.5531 16.8821ZM29.2986 20.1739C28.5956 19.4709 27.6253 19.0362 26.5531 19.0362C25.4809 19.0362 24.5095 19.4709 23.8076 20.1739C23.1046 20.8769 22.6699 21.8472 22.6699 22.9194C22.6699 23.9917 23.1046 24.963 23.8076 25.6649C24.5106 26.3679 25.4809 26.8026 26.5531 26.8026C27.6253 26.8026 28.5967 26.3679 29.2986 25.6649C30.0016 24.9619 30.4363 23.9916 30.4363 22.9194C30.4363 21.8471 30.0016 20.8758 29.2986 20.1739Z" fill="#008060"/>
<path d="M40.1884 1.40481L36.7033 17.0571L52.0931 21.8942L51.7729 22.9213L52.096 21.8942C52.6634 22.0721 52.9788 22.677 52.8009 23.2444C52.6845 23.6147 52.3864 23.8782 52.0354 23.9666L36.7034 28.7856L40.2087 44.5321L40.2125 44.5311C40.3414 45.112 39.976 45.6871 39.3951 45.8169C39.0133 45.9015 38.6334 45.7727 38.3815 45.5092L26.5499 34.648L14.6663 45.5564L13.9383 44.766L14.6663 45.5594C14.2278 45.9613 13.5469 45.9325 13.1449 45.494C12.8737 45.1987 12.7987 44.7938 12.9122 44.438L16.3972 28.7858L1.00743 23.9486L1.32767 22.9215L1.00455 23.9486C0.437153 23.7707 0.121735 23.1658 0.299632 22.5984C0.415996 22.2282 0.714114 21.9647 1.06513 21.8762L16.3971 17.0573L12.8918 1.31073L12.888 1.31169C12.7591 0.730831 13.1246 0.155757 13.7054 0.0259168C14.0872 -0.058711 14.4671 0.0701547 14.719 0.333654L26.5507 11.1948L38.4342 0.286385L39.1622 1.07688L38.4342 0.28348C38.8728 -0.118499 39.5537 -0.0896444 39.9556 0.348874C40.2268 0.644105 40.3018 1.04899 40.1884 1.40481V1.40481ZM34.3943 17.5544L37.3717 4.17937L27.3279 13.3999C26.924 13.8211 26.2547 13.8442 25.8229 13.448L26.5508 12.6546L25.8229 13.4451L15.7291 4.17925L18.6863 17.4609L18.6873 17.4638C18.8652 18.0312 18.5498 18.6361 17.9824 18.814L17.6592 17.787L17.9795 18.814L4.91419 22.9205L17.9219 27.0085C18.4854 27.1498 18.8374 27.7163 18.7104 28.2875L18.7066 28.2865L15.7292 41.6615L25.773 32.441C26.1769 32.0198 26.8462 31.9967 27.278 32.3929L26.55 33.1863L27.278 32.3958L37.3718 41.6617L34.4146 28.38L34.4136 28.3771C34.2357 27.8097 34.5511 27.2048 35.1185 27.0269L35.4416 28.0539L35.1214 27.0269L48.1867 22.9204L35.179 18.8324C34.6154 18.6911 34.2635 18.1246 34.3904 17.5534L34.3943 17.5544Z" fill="#008060"/>
<path d="M5.99062 90.0349H46.8606C47.9608 90.0349 48.9599 90.484 49.6841 91.2082C50.4083 91.9323 50.8574 92.9315 50.8574 94.0317V103.399H1.99609V94.0317C1.99609 92.9315 2.44519 91.9324 3.16933 91.2082C3.89348 90.484 4.89267 90.0349 5.99289 90.0349H5.99062ZM46.8606 92.1891H5.99062C5.48477 92.1891 5.02509 92.3968 4.69044 92.7315C4.35577 93.0661 4.14806 93.5258 4.14806 94.0316V101.245H48.701V94.0316C48.701 93.5258 48.4933 93.0661 48.1587 92.7315C47.824 92.3968 47.3643 92.1891 46.8585 92.1891H46.8606Z" fill="#008060"/>
<path d="M15.3351 78.8259H37.521C38.6212 78.8259 39.6203 79.275 40.3445 79.9992C41.0687 80.7233 41.5178 81.7225 41.5178 82.8227V92.1905H11.3398V82.8227C11.3398 81.7226 11.7889 80.7234 12.5131 79.9992C13.2363 79.275 14.2364 78.8259 15.3366 78.8259H15.3351ZM37.521 80.9801H15.3351C14.8293 80.9801 14.3696 81.1878 14.0349 81.5225C13.7003 81.8571 13.4925 82.3168 13.4925 82.8227V90.0363H39.3622V82.8227C39.3622 82.3168 39.1544 81.8571 38.8198 81.5225C38.4851 81.1878 38.0254 80.9801 37.5196 80.9801H37.521Z" fill="#008060"/>
</svg>
