<svg width="70" height="87" viewBox="0 0 70 87" fill="none" xmlns="http://www.w3.org/2000/svg">
<path d="M23.7173 17.1641C23.1403 17.1641 22.6057 17.4521 22.2865 17.933C21.3902 19.283 0.25 51.1295 0.25 63.5358C0.25 76.4758 10.778 86.9999 23.7172 86.9999C36.6593 86.9999 47.1865 76.4758 47.1865 63.5358C47.1865 51.1303 26.0453 19.2834 25.1441 17.933C24.8258 17.4521 24.2933 17.1641 23.7173 17.1641H23.7173ZM23.7173 83.5673C12.6698 83.5673 3.68481 74.5813 3.68481 63.5356C3.68481 53.9797 18.6417 29.9175 23.7173 22.0278C28.7959 29.9165 43.749 53.9748 43.749 63.5356C43.749 74.5821 34.7668 83.5673 23.7173 83.5673Z" fill="#008060"/>
<path d="M25.199 82.3465C25.3031 82.3465 25.4092 82.3354 25.5153 82.3122C33.6446 80.5651 40.0519 74.3932 41.8355 66.5862C42.0467 65.6778 41.5212 64.7512 40.6724 64.5157C39.8236 64.2854 38.9283 64.8603 38.7212 65.7698C37.2267 72.2872 31.7955 77.4598 24.8839 78.9454C24.025 79.1283 23.4601 80.0306 23.6268 80.9572C23.7693 81.7605 24.4352 82.3466 25.1991 82.3466L25.199 82.3465Z" fill="#008060"/>
<path d="M51.6134 63.8094C51.7478 63.8094 51.8842 63.7922 52.0115 63.7629C58.248 62.2907 63.1459 57.1524 64.4988 50.6641C64.6989 49.7386 64.1007 48.8291 63.166 48.6361C62.2596 48.4482 61.3249 49.0515 61.1339 49.9669C60.0557 55.1527 56.1665 59.2523 51.2223 60.4202C50.7737 60.5263 50.3978 60.7951 50.1522 61.1892C49.9148 61.5822 49.842 62.038 49.9421 62.4856C50.128 63.2637 50.8181 63.8093 51.6134 63.8093V63.8094Z" fill="#008060"/>
<path d="M47.8012 0.76898C47.4829 0.286981 46.9494 0 46.3704 0C45.7985 0 45.2609 0.286981 44.9416 0.76898C44.8749 0.866996 37.9401 11.2921 31.9349 22.4435C31.7176 22.8477 31.6671 23.3166 31.7985 23.7501C31.9349 24.1906 32.2239 24.5554 32.628 24.7697C33.4394 25.2042 34.5196 24.8828 34.9562 24.0785C39.2922 16.0302 44.1898 8.25242 46.3684 4.86138C51.4491 12.7501 66.4001 36.8084 66.4001 46.3692C66.4001 55.6727 60.0927 63.6786 51.0621 65.8492C50.6175 65.9553 50.2406 66.2301 50.0001 66.6181C49.7596 67.0112 49.6859 67.474 49.792 67.9186C49.9789 68.6936 50.667 69.2322 51.4622 69.2322C51.6017 69.2322 51.7331 69.215 51.8654 69.1857C62.447 66.6504 69.8427 57.2611 69.8427 46.3683C69.8437 33.9638 48.6997 2.11585 47.8013 0.768127L47.8012 0.76898Z" fill="#008060"/>
<path d="M38.9529 61.2045C38.9085 62.1493 39.6411 62.8607 40.5808 62.8607H40.7688C41.6499 62.8607 42.342 62.2493 42.3865 61.3773C42.3976 61.1025 42.4865 58.8016 41.3205 57.1404C40.79 56.3957 39.6724 56.2027 38.9247 56.7301C38.1537 57.2748 37.9657 58.3499 38.5134 59.1229C38.857 59.61 38.9813 60.6023 38.953 61.2045L38.9529 61.2045Z" fill="#008060"/>
</svg>
