<svg width="128" height="128" viewBox="0 0 128 128" fill="none" xmlns="http://www.w3.org/2000/svg">
<path fill-rule="evenodd" clip-rule="evenodd" d="M128 64C128 99.3462 99.3462 128 64 128C28.6538 128 0 99.3462 0 64C0 28.6538 28.6538 0 64 0C99.3462 0 128 28.6538 128 64ZM45.3604 18.6396L55.5147 8.48528C60.201 3.79899 67.799 3.79899 72.4853 8.48528L82.6396 18.6396H97C103.627 18.6396 109 24.0122 109 30.6396V45L119.154 55.1543C123.841 59.8406 123.841 67.4386 119.154 72.1249L109 82.2792V96.6396C109 103.267 103.627 108.64 97 108.64H82.6396L72.4853 118.794C67.799 123.48 60.201 123.48 55.5147 118.794L45.3604 108.64H31C24.3726 108.64 19 103.267 19 96.6396V82.2792L8.84567 72.1249C4.15937 67.4386 4.15938 59.8406 8.84567 55.1543L19 45V30.6396C19 24.0122 24.3726 18.6396 31 18.6396H45.3604Z" fill="#AF9D6E"/>
<path fill-rule="evenodd" clip-rule="evenodd" d="M83.3455 56.9338C83.058 57.2212 82.6983 57.3652 82.3387 57.3652C81.979 57.3652 81.6193 57.2212 81.3319 56.9338C80.8282 56.4301 80.8282 55.4956 81.3319 54.9202L89.027 48.16H67.956C67.1649 48.16 66.6618 47.6564 66.6618 46.8658C66.6618 46.0747 67.1654 45.5716 67.956 45.5716H89.027L81.2602 38.8115C80.7566 38.3078 80.7566 37.3733 81.2602 36.7979C81.7639 36.1508 82.6984 36.2942 83.3455 36.7979L92.6223 45.859C93.1259 46.3627 93.1259 47.2972 92.6223 47.8726L83.3455 56.9338ZM56.3774 58.7316H40.0527C37.3198 58.7316 35.0188 56.4301 35.0188 53.6977V40.0339C35.0188 37.301 37.3203 35 40.0527 35H56.3774C59.1103 35 61.4113 37.3015 61.4113 40.0339V53.6977C61.4113 56.4301 59.1103 58.7316 56.3774 58.7316ZM48.1791 40.2495C44.5116 40.2495 41.5629 43.1982 41.5629 46.8657C41.5629 50.5332 44.5116 53.4819 48.1791 53.4819C51.8466 53.4819 54.7953 50.5332 54.7953 46.8657C54.7953 43.1982 51.8466 40.2495 48.1791 40.2495ZM44.6551 70.9572C45.3023 70.4535 46.1656 70.31 46.7404 70.9572C47.3158 71.6043 47.3158 72.4676 46.7404 72.9708L38.9736 79.7309H60.0447C60.8357 79.7309 61.3389 80.2346 61.3389 81.0251C61.3389 81.8162 60.8352 82.3193 60.0447 82.3193L38.9017 82.3198L46.5968 89.08C47.1722 89.7271 47.1722 90.5904 46.5968 91.0936C46.3806 91.4532 46.021 91.669 45.6613 91.669C45.3016 91.669 44.9419 91.525 44.6545 91.2375L35.3777 82.0324C34.8741 81.3853 34.8741 80.522 35.3777 80.0188L44.6551 70.9572ZM81.116 69.2311C87.6603 69.2311 92.9817 74.5529 92.9817 81.0968C92.9817 87.6412 87.6598 92.9625 81.116 92.9625C74.5716 92.9625 69.2503 87.6406 69.2503 81.0968C69.2498 74.5529 74.5717 69.2311 81.116 69.2311V69.2311Z" fill="#008060"/>
</svg>
