<svg width="64" height="64" viewBox="0 0 64 64" fill="none" xmlns="http://www.w3.org/2000/svg">
<circle opacity="0.1" cx="32" cy="32" r="32" fill="#F49342"/>
<path fill-rule="evenodd" clip-rule="evenodd" d="M18.5596 32.6401H32.6396V24.3201C32.6396 23.0769 33.3485 21.9993 34.3842 21.4695C34.0718 21.2494 33.6908 21.1201 33.2796 21.1201H20.4796C19.4192 21.1201 18.5596 21.9797 18.5596 23.0401V32.6401ZM45.4396 35.8401C45.4396 35.3483 45.2547 34.8997 44.9506 34.56C45.2547 34.2203 45.4396 33.7717 45.4396 33.2799V31.3601H40.9596C39.8992 31.3601 39.0396 30.5005 39.0396 29.4401V26.8801C39.0396 25.8197 39.8992 24.9601 40.9596 24.9601H44.3795L44.3468 24.8273C44.1603 24.0681 43.5321 23.4979 42.7584 23.3855L36.1157 22.4201C36.0243 22.4068 35.932 22.4001 35.8396 22.4001C34.7792 22.4001 33.9196 23.2597 33.9196 24.3201V33.2799C33.9196 33.5044 33.9581 33.7199 34.0289 33.9201H20.4796C19.4192 33.9201 18.5596 34.7797 18.5596 35.8401V37.1201C18.5596 38.1805 19.4192 39.0401 20.4796 39.0401H21.1649C21.4755 36.8691 23.3426 35.2001 25.5996 35.2001C27.8565 35.2001 29.7237 36.8691 30.0342 39.0401H35.2449C35.5555 36.8691 37.4226 35.2001 39.6796 35.2001C41.9054 35.2001 43.7521 36.8234 44.1005 38.9507C44.8769 38.7045 45.4396 37.978 45.4396 37.1201V35.8401ZM45.3841 29.0481L44.694 26.2401H40.9596C40.6061 26.2401 40.3196 26.5267 40.3196 26.8801V29.4401C40.3196 29.7936 40.6061 30.0801 40.9596 30.0801H45.4396V29.5063C45.4396 29.3519 45.4209 29.1981 45.3841 29.0481ZM28.7996 39.6801C28.7996 41.4474 27.3669 42.8801 25.5996 42.8801C23.8323 42.8801 22.3996 41.4474 22.3996 39.6801C22.3996 37.9128 23.8323 36.4801 25.5996 36.4801C27.3669 36.4801 28.7996 37.9128 28.7996 39.6801ZM42.8796 39.6801C42.8796 41.4474 41.4469 42.8801 39.6796 42.8801C37.9123 42.8801 36.4796 41.4474 36.4796 39.6801C36.4796 37.9128 37.9123 36.4801 39.6796 36.4801C41.4469 36.4801 42.8796 37.9128 42.8796 39.6801Z" fill="#F49342"/>
</svg>
