<svg viewBox="0 0 64 64" fill="none" xmlns="http://www.w3.org/2000/svg" {...props}>
<circle opacity="0.1" cx="32" cy="32" r="32" fill="#F49342"/>
<path fill-rule="evenodd" clip-rule="evenodd" d="M45.4396 36.0592C44.9203 35.4174 44.2658 34.8895 43.5196 34.5186V31.9999C43.5196 25.4608 38.5386 20.5186 31.9996 20.5186C25.4605 20.5186 20.4796 25.4608 20.4796 31.9999V34.5186C19.7333 34.8895 19.0789 35.4174 18.5596 36.0592V31.9999C18.5596 24.4004 24.4001 18.5986 31.9996 18.5986C39.599 18.5986 45.4396 24.4004 45.4396 31.9999V36.0592ZM22.4562 35.2375C22.419 35.4326 22.3996 35.634 22.3996 35.8399V43.5199C22.3996 43.7258 22.419 43.9272 22.4562 44.1222C20.2576 43.8363 18.5596 41.9564 18.5596 39.6799C18.5596 37.4034 20.2576 35.5234 22.4562 35.2375ZM41.5996 43.5199C41.5996 43.7258 41.5801 43.9272 41.543 44.1222C43.7416 43.8363 45.4396 41.9564 45.4396 39.6799C45.4396 37.4034 43.7416 35.5234 41.543 35.2375C41.5801 35.4326 41.5996 35.634 41.5996 35.8399V43.5199ZM25.5996 33.9199H26.8796C27.94 33.9199 28.7996 34.7795 28.7996 35.8399V43.5199C28.7996 44.5803 27.94 45.4399 26.8796 45.4399H25.5996C24.5392 45.4399 23.6796 44.5803 23.6796 43.5199V35.8399C23.6796 34.7795 24.5392 33.9199 25.5996 33.9199ZM38.3996 33.9199H37.1196C36.0592 33.9199 35.1996 34.7795 35.1996 35.8399V43.5199C35.1996 44.5803 36.0592 45.4399 37.1196 45.4399H38.3996C39.46 45.4399 40.3196 44.5803 40.3196 43.5199V35.8399C40.3196 34.7795 39.46 33.9199 38.3996 33.9199Z" fill="#F49342"/>
</svg>
