<svg  viewBox="0 0 64 64" fill="none" xmlns="http://www.w3.org/2000/svg" {...props}>
<circle opacity="0.1" cx="32" cy="32" r="32" fill="#F49342"/>
<path fill-rule="evenodd" clip-rule="evenodd" d="M23.0396 18.5601H40.9596C43.4338 18.5601 45.4396 20.5658 45.4396 23.0401V32.0001C45.4396 34.4743 43.4338 36.4801 40.9596 36.4801H23.0396C20.5653 36.4801 18.5596 34.4743 18.5596 32.0001V23.0401C18.5596 20.5658 20.5653 18.5601 23.0396 18.5601ZM45.4396 35.8401V35.2001C45.4396 35.2001 44.4725 37.543 40.9596 37.7601H23.0396C19.4515 37.4951 18.5596 35.2001 18.5596 35.2001V35.8401C18.5596 38.3143 20.5653 40.3201 23.0396 40.3201H40.9596C43.4338 40.3201 45.4396 38.3143 45.4396 35.8401ZM45.4396 39.6801V39.0401C45.4396 39.0401 44.4725 41.383 40.9596 41.6001H23.0396C19.4515 41.3351 18.5596 39.0401 18.5596 39.0401V39.6801C18.5596 42.1543 20.5653 44.1601 23.0396 44.1601H40.9596C43.4338 44.1601 45.4396 42.1543 45.4396 39.6801ZM34.5596 23.6801H32.6396V23.0401C32.6396 22.6866 32.353 22.4001 31.9996 22.4001C31.6461 22.4001 31.3596 22.6866 31.3596 23.0401V23.6801H30.7374C29.677 23.6801 28.8174 24.5397 28.8174 25.6001V26.241C28.8174 27.3014 29.677 28.161 30.7374 28.161H33.2796C33.633 28.161 33.9196 28.4476 33.9196 28.801V29.4401C33.9196 29.7935 33.633 30.0801 33.2796 30.0801H30.0953C30.0689 29.7599 29.8056 29.5036 29.4769 29.4936C29.1236 29.4829 28.8285 29.7606 28.8177 30.1139L28.7999 30.7006C28.7889 31.0615 29.0785 31.3601 29.4396 31.3601H31.3596V31.9888C31.3596 32.3423 31.6461 32.6288 31.9996 32.6288C32.353 32.6288 32.6396 32.3423 32.6396 31.9888V31.3601H33.2796C34.34 31.3601 35.1996 30.5004 35.1996 29.4401V28.801C35.1996 27.7406 34.34 26.881 33.2796 26.881H30.7374C30.384 26.881 30.0974 26.5945 30.0974 26.241V25.6001C30.0974 25.2466 30.384 24.9601 30.7374 24.9601H33.9386C34.008 25.2384 34.2597 25.4446 34.5596 25.4446C34.913 25.4446 35.1996 25.1581 35.1996 24.8046V24.3201C35.1996 23.9666 34.913 23.6801 34.5596 23.6801Z" fill="#F49342"/>
</svg>
