<svg width="40" height="40" viewBox="0 0 40 40" fill="none" xmlns="http://www.w3.org/2000/svg">
<path fill-rule="evenodd" clip-rule="evenodd" d="M20 0C8.96 0 0 8.96 0 20C0 31.04 8.96 40 20 40C31.04 40 40 31.04 40 20C40 8.96 31.04 0 20 0ZM18 35.86C10.12 34.88 4 28.16 4 20C4 11.84 10.1 5.12 18 4.14V35.86ZM22 4.14C24.06 4.4 26 5.04 27.74 6H22V4.14ZM22 10H32.48C32.98 10.62 33.44 11.3 33.84 12H22V10ZM22 16H35.48C35.64 16.66 35.78 17.32 35.86 18H22V16ZM22 35.86V34H27.74C26 34.96 24.06 35.6 22 35.86ZM32.48 30H22V28H33.84C33.44 28.7 32.98 29.38 32.48 30ZM35.48 24H22V22H35.86C35.78 22.68 35.64 23.34 35.48 24Z" fill="#065F46"/>
</svg>
