<svg width="148" height="140" viewBox="0 0 148 140" fill="none" xmlns="http://www.w3.org/2000/svg">
<g clip-path="url(#clip0_287_5045)">
<path d="M59.059 65.174C55.0593 64.8374 50.8964 65.09 47.0999 64.0248C41.595 62.4787 40.0536 54.8559 44.8666 50.9304C50.0033 46.74 55.8604 43.3556 61.6748 40.0967C63.2247 39.2275 66.0303 39.5801 67.7331 40.4219C68.4782 40.7905 68.2541 43.8874 67.8204 45.5814C67.2794 47.2128 66.3963 48.7117 65.2293 49.9792C62.8811 52.814 60.8547 55.4206 62.622 59.561C63.798 62.3137 63.0614 64.909 59.059 65.174Z" fill="#008060"/>
<path d="M50.3805 0C52.3519 0.430823 54.4475 0.576001 56.2651 1.35469C59.8244 2.87717 60.4413 5.40838 58.0685 8.55141C54.628 12.8871 52.0958 17.8627 50.6206 23.1852C50.2547 24.18 49.6716 25.082 48.9131 25.8264C48.1546 26.5707 47.2396 27.1391 46.2338 27.4906C45.0113 27.8262 42.8311 25.9455 41.5688 24.6021C40.175 22.9065 38.9722 21.0645 37.982 19.1089C34.4009 13.0162 34.4617 12.6221 39.3041 7.36827C45.7829 0.338436 45.7829 0.338436 50.3805 0Z" fill="#008060"/>
<path d="M45.5715 81.9427C47.6596 83.5079 50.7101 84.7399 51.7865 86.9309C52.6843 88.7572 51.4846 91.7672 50.8126 94.1409C50.1349 96.5328 46.1619 97.8474 48.5167 101.4C48.7303 101.721 47.093 103.825 45.9541 104.366C39.4534 107.467 34.8492 103.161 31.1305 99.2453C29.1231 97.1313 29.3984 92.8004 28.8887 89.4327C28.9379 88.9805 29.0991 88.5479 29.358 88.172C29.6168 87.7968 29.9653 87.4916 30.3721 87.2823C35.0324 85.5232 39.7619 83.9559 45.5715 81.9427Z" fill="#008060"/>
<path d="M76.9614 125.91C76.4469 130.057 74.9514 132.535 70.4058 133.319C67.2443 133.865 64.4899 136.636 60.8756 134.828C59.8003 134.291 58.5104 134.096 57.5641 133.414C56.6577 132.754 56.1613 130.988 55.327 130.877C50.0973 130.179 49.1577 125.439 47.006 122.12C44.9407 118.932 46.8513 116.479 50.7266 116.234C52.8859 116.096 55.0831 115.196 57.1589 115.457C59.9446 115.808 64.2896 116.221 65.0366 117.895C67.0507 122.412 70.7109 123.343 74.561 124.613C75.3989 124.972 76.2031 125.406 76.9614 125.91Z" fill="#008060"/>
<path d="M93.6794 12.1168C95.0643 12.953 96.9488 13.4611 97.3689 14.5349C97.7403 15.4776 96.4139 17.0368 95.9453 18.3614C94.8416 21.4723 93.7823 24.6031 92.7421 27.7386C91.4129 31.7517 90.348 35.8752 88.7158 39.762C87.6847 42.2131 85.5134 43.2387 83.0686 41.1063C80.9557 39.2643 78.8724 37.3751 76.9273 35.3624C73.7812 32.1024 74.8193 23.2333 79.2621 21.6825C83.4527 20.2204 85.8383 17.1953 88.9653 14.7639C90.4693 13.7679 92.0451 12.8832 93.6794 12.1168Z" fill="#008060"/>
<path d="M28.0166 72.6131C26.181 75.7239 24.7896 78.2887 23.1846 80.7135C22.1445 82.2815 20.9254 83.7249 19.5514 85.0143C18.0669 86.4003 16.0395 88.7635 14.7601 88.4772C12.2495 87.8661 10.0629 86.338 8.63629 84.1967C6.86334 81.1321 3.22627 78.4343 5.8098 73.7156C7.94252 69.8187 19.2172 63.4279 23.027 65.5575C25.2461 66.7963 26.3054 70.0644 28.0166 72.6131Z" fill="#008060"/>
<path d="M68.3066 93.5697C68.9132 89.8212 68.971 87.1017 69.849 84.6734C70.8312 81.9581 73.3331 81.6949 75.6757 82.9822C77.1515 83.8691 78.4673 84.9961 79.5674 86.3163C81.5605 88.557 83.2688 90.5051 86.9702 90.16C88.6032 90.0067 91.0839 92.2873 92.0396 94.0674C92.5752 95.0656 91.2037 97.7438 89.9648 98.8967C83.8023 104.628 76.2973 106.455 71.5366 99.8879C70.2692 97.8831 69.1881 95.7684 68.3066 93.5697Z" fill="#008060"/>
<path d="M119.507 100.81C117.799 101.207 115.513 101.056 114.495 102.11C112.04 104.656 110.181 104.612 107.803 102.215C105.24 99.6324 105.38 96.8961 107.147 94.1514C108.489 92.0641 110.326 90.2966 111.725 88.2407C115.6 82.5448 120.874 80.9957 126.704 84.1751C127.475 84.5965 128.37 86.1498 128.138 86.8001C127.037 89.8745 125.612 92.841 124.207 95.7999C123.153 98.0217 121.954 100.175 120.818 102.358L119.507 100.81Z" fill="#008060"/>
<path d="M19.3492 113.728C19.5182 118.135 13.7722 124.36 9.40998 124.496C6.0415 124.6 0.290709 117.896 0.0211555 113.55C-0.293956 108.45 2.93404 104.983 8.17228 104.796C13.8756 104.594 19.1623 108.818 19.3492 113.728Z" fill="#008060"/>
<path d="M83.9692 57.2051C88.2288 58.3052 92.3277 59.1075 96.2179 60.4876C97.8763 61.0759 100.086 62.7502 100.259 64.1492C100.449 65.7235 98.6733 67.5665 97.6747 69.2473C96.9883 70.4032 96.0347 71.4154 95.4364 72.6075C93.1381 77.1946 88.2506 78.3062 84.6824 74.5794C78.5404 68.1642 77.4276 64.5206 83.9692 57.2051Z" fill="#008060"/>
<path d="M113.967 130.76C108.708 131.321 106.265 127.41 104.981 124.152C104.104 121.924 106.16 118.348 107.424 115.611C107.828 114.736 109.978 114.073 111.184 114.255C114.932 114.738 118.625 115.579 122.211 116.766C126.331 118.24 126.75 121.68 123.511 124.564C120.584 127.172 118.84 131.636 113.967 130.76Z" fill="#008060"/>
<path d="M126.455 56.0804C124.591 56.8714 122.257 58.7644 121.054 58.2157C115.967 55.8947 109.588 56.1907 105.947 50.738C103.792 47.513 104.048 45.5361 107.731 44.0929C108.309 43.8665 109.089 43.8873 109.483 43.5008C112.068 40.9639 114.677 39.2331 117.81 42.6901C119.893 44.8075 121.845 47.0494 123.653 49.4032C124.783 51.0068 125.238 53.0797 126.455 56.0804Z" fill="#008060"/>
<path d="M20.8984 46.3817C21.1765 38.5043 24.322 33.5513 28.7763 32.1391C31.4709 31.2841 33.2268 32.3154 32.7171 34.8362C31.7207 39.6908 30.3034 44.4508 28.4811 49.0628C28.1308 49.9565 24.8393 50.6862 23.6965 50.0621C22.1266 49.2023 21.3142 46.9803 20.8984 46.3817Z" fill="#008060"/>
<path d="M147.887 130.761C147.982 135.179 144.883 139.723 142.201 139.623C138.943 139.507 134.797 135.84 134.787 133.067C134.768 128.253 137.785 125.116 142.665 125.066C146.848 125.026 148.469 127.281 147.887 130.761Z" fill="#008060"/>
</g>
<defs>
<clipPath id="clip0_287_5045">
<rect width="148" height="140" fill="white"/>
</clipPath>
</defs>
</svg>
