<svg width="128" height="307" viewBox="0 0 128 307" fill="none" xmlns="http://www.w3.org/2000/svg">
<path d="M57.6468 287.57L44.1332 298.057C45.1794 294.851 46.083 292.101 46.984 289.351L44.6053 287.957L30.1371 306.996L28.7313 306.19C30.4296 302.585 32.1295 298.981 33.8313 295.378L32.0005 294.345C29.6877 298.004 27.3735 301.664 25.058 305.323L24.0302 304.832C24.4526 303.328 24.8736 301.826 25.3483 300.127C24.5049 299.996 23.821 299.677 23.3332 299.866C21.3102 300.639 19.4101 302.079 17.3453 302.325C13.7309 302.755 9.81959 303.371 9.78298 297.324C9.76728 294.541 8.04376 291.654 6.63669 289.062C6.18815 288.237 4.26586 288.212 2.08987 287.529C-0.954413 265.239 -1.13357 242.035 4.67124 218.655C7.75214 206.247 7.62138 193.068 9.3789 180.298C10.6251 171.262 9.16313 161.385 17.0942 154.11C18.5994 152.728 18.8256 149.733 19.2231 147.409C20.6093 139.284 21.6463 131.095 23.2037 123.005C23.596 120.969 25.3065 119.114 26.6495 117.36C27.4027 116.378 29.1341 115.987 29.5892 114.96C32.7551 107.883 35.5457 100.633 38.7704 93.5756C41.4655 87.6788 43.7278 81.2906 47.6849 76.3243C58.6603 62.5153 71.1081 49.846 81.5761 35.6947C86.6918 28.7784 88.8991 20.0573 97.5665 15.4975C100.192 14.1161 100.313 8.40351 102.183 5.0029C103.281 3.00592 105.555 1.64542 107.301 0L111.857 5.69426C114.287 5.24076 118.365 4.22789 119.096 10.0528C119.479 8.92121 120.033 7.85498 120.74 6.8914C122.329 5.44665 123.996 4.08979 125.733 2.82687C126.645 4.80958 127.339 6.88536 127.803 9.01777C129.334 22.8594 121.477 34.8687 119.957 48.0608C118.852 57.6732 119.332 67.4646 119.012 77.1725C118.882 81.3076 120.712 86.0674 115.456 89.7189L112.945 82.9347L111.994 83.0301C111.687 87.292 111.381 91.5538 111.03 96.4182C107.878 91.6231 105.793 92.7471 103.629 96.4273C100.804 101.23 100.681 101.158 95.1773 99.7914L87.3312 106.152C85.0166 111.535 83.2003 116.044 81.1524 120.445C78.7057 125.701 75.8628 130.184 78.2311 137.018C79.7244 141.331 76.3271 147.212 75.6275 152.454C75.4721 155.198 75.7108 157.951 76.3362 160.627C76.8789 163.974 77.6884 167.278 78.4834 171.083L82.094 169.227L86.3073 180.376L90.5965 174.141C97.7718 177.948 98.0111 184.693 97.4436 191.803L99.2429 191.512V180.939L100.43 179.85C102.273 182.594 105.433 185.221 105.691 188.108C106.274 194.65 106.44 201.561 104.938 207.887C102.367 218.721 98.4871 229.255 94.8883 239.824C94.3744 241.334 92.3632 242.332 92.1997 242.485C91.147 246.065 90.3428 248.796 89.5399 251.528L87.2188 251.027C87.4685 248.987 87.7196 246.948 88.108 243.792C76.8201 260.6 69.1113 279.173 48.9533 287.131L50.7841 289.494L57.6468 287.57ZM50.0269 237.907C44.5896 238.158 44.1123 239.19 39.2529 261.079C46.423 253.959 47.7542 245.832 50.0269 237.913V237.907Z" fill="#008060"/>
</svg>
